<?xml version="1.0" encoding="utf-8"?>
<!-- Generator: Adobe Illustrator 22.1.0, SVG Export Plug-In . SVG Version: 6.00 Build 0)  -->
<svg version="1.1" id="Layer_1" xmlns="http://www.w3.org/2000/svg" xmlns:xlink="http://www.w3.org/1999/xlink" x="0px" y="0px"
	 viewBox="0 0 1024 1024" style="enable-background:new 0 0 1024 1024;" xml:space="preserve" fill="#fafafa">
<path d="M992.2783813,785.4780273c-0.0888672-0.7138062-0.2350464-1.3568726-0.5140991-2.2703857
	c-0.2015991-0.7156982-0.4318848-1.2393188-0.6210938-1.5995483c-0.3468628-0.6908569-0.8121948-1.4361572-0.8179321-1.4457397
	l-0.1174927-0.1786499c-0.567627-0.835144-1.2068481-1.5795288-1.8843384-2.1977539l-176.4240112-162.557251L990.7677002,243.189621
	c0.2684937-0.4581757,0.4959106-0.928299,0.6784058-1.4027252l0.0650024-0.171051
	c0.1003418-0.2393646,0.1834717-0.463913,0.2484131-0.6555023l1.5756836-4.153717l-0.9631958-0.4811249
	c-0.0219727-0.3898468-0.0611572-0.7983398-0.0907593-1.0348358c-0.0324707-0.2350616-0.1624146-0.9249725-0.2159424-1.1547699
	l-0.3735962-1.2766113c-0.2312622-0.6937103-0.7109375-1.6650238-0.7950439-1.8274689l-0.208313-0.3659668
	c-0.0363159-0.0597229-0.2914429-0.4481506-0.5006714-0.7625122l-0.3860474-0.5895691l-0.3850708-0.445282l-0.0019531,0.0014343
	c-0.114624-0.1333008-0.2627563-0.3019562-0.4031982-0.4557953l-0.3850708-0.4142303
	c-0.218811-0.2169037-0.5953369-0.5570679-0.8609619-0.7658539l-0.3201294-0.250351l-1.2976074-0.881012
	c-0.0792847-0.0458679-0.4710693-0.2584686-0.7052002-0.3831787l-0.2713623-0.1452332L806.503479,144.4843597
	c-3.3157349-1.5040131-7.1216431-1.5045013-10.43927,0.000473L617.567627,225.497818l-0.1118164,0.0525513
	c-0.218811,0.1046295-0.9450073,0.4811249-1.3014526,0.7090149c-0.654541,0.4060974-1.2221069,0.8365784-1.9311523,1.4710541
	c-0.3239136,0.2942963-0.5656738,0.5671082-1.4055786,1.5560913l-0.3516235,0.4553223
	c-0.1089478,0.1547852-0.3191528,0.4796753-0.5198364,0.8222351c-0.1729126,0.2761536-0.3382568,0.5761871-0.5159912,0.9349976
	l-1.6262817,3.3630219L523.7824097,20.0215931c-1.270874-3.174778-3.8240356-5.7356215-7.0213013-7.0322886
	c-3.1933594-1.2837658-6.8172607-1.2020674-9.932312,0.2207298L362.7354126,78.6276627l-0.2054443,0.0984192
	c-0.460083,0.2307663-1.2526855,0.7405472-1.6846008,1.0243378l-0.3841248,0.2751999
	c-0.4433594,0.3449478-1.2593994,1.100296-1.6473389,1.5250397l-0.0731201,0.0812149
	c-0.3908081,0.4443283-0.6827087,0.8485184-1.1896362,1.5861969l-0.2020874,0.3158035
	c-0.2661133,0.4457626-0.7219238,1.3845825-0.8948669,1.8121796l-0.0429993,0.1089325
	c-0.2355347,0.6172791-0.5661621,1.9172897-0.5690308,1.9292374l-0.0501709,0.2302856
	c-0.0707092,0.3602371-0.0998535,0.6425934-0.1930237,1.6936874l-0.0391541,0.417572v144.0670776l-162.1564026-73.5960846
	c-3.312851-1.5001984-7.1130371-1.5001984-10.4335327,0.0028687L39.158886,225.4720154
	c-0.4586563,0.2059174-1.2742119,0.654541-1.6889153,0.9187469c-0.8255844,0.5360718-1.5728149,1.1629028-2.3511047,1.9727173
	l-0.0735741,0.0783539c-0.675087,0.7290802-1.2326469,1.5107117-1.8088341,2.5355225l-0.070713,0.1299591
	c-0.4667778,0.8809967-0.8031273,1.7696533-1.0912247,2.8804626l-0.0320091,0.1304321
	c-0.2302856,0.9794312-0.342083,1.9215851-0.342083,2.8800049v157.5979767c0,4.9506531,2.9115257,9.4679565,7.4125938,11.505188
	l154.516861,70.1312866v384.3478394c0,4.9373169,2.9062653,9.4522095,7.4135437,11.5056763l144.3642578,65.4763794
	l0.3683472,0.1528931c0.2422485,0.0898438,0.9135132,0.3048096,1.2608337,0.3946533
	c2.1671753,0.5513306,3.7390442,0.6611938,6.8368835-0.1968384c0.446228-0.1261597,1.0329285-0.3411255,1.4686584-0.5379639
	l144.0718689-65.411438v127.4058228c0,4.3151855,2.1690674,8.2854614,5.7944031,10.6160278
	c2.0429382,1.317688,4.408844,2.0142822,6.8416748,2.0142822c1.7763062,0,3.574646-0.3860474,5.2219849-1.1246948
	l143.8334351-65.2890625c4.5168457-2.0353394,7.4350586-6.5540771,7.4350586-11.5123291V790.2824707l162.3919678,73.6997681
	l0.3105469,0.1299438c0.2436523,0.0946045,0.6325684,0.2446289,1.1418457,0.3841553
	c0.5322266,0.161499,1.032959,0.2589111,1.0892944,0.2694702c0.8026733,0.1605225,1.6187134,0.2416992,2.4232788,0.2416992
	h0.1547852c0.0143433,0,0.0286865,0,0.0430298,0l5.6730347-0.0056763v-1.4085083l143.2199707-65.0053101
	c1.0281372-0.4663086,2.010437-1.0855103,2.7854004-1.7524414c0.4519653-0.3745728,0.9154053-0.835144,1.0835571-1.0109863
	c0.2111816-0.2216797,0.8800659-0.9870605,1.203064-1.4447632c0.2225952-0.312439,0.5016479-0.7797241,0.6306152-1.0004272
	c0.0133667-0.0229492,0.0267944-0.0449219,0.0391846-0.0678711c0.0114746-0.0200806,0.0200806-0.0343628,0.0258179-0.0449219
	h-0.0009766c0.4061279-0.7223511,0.7979126-1.7075195,0.8016968-1.7180176
	c0.1261597-0.3191528,0.2446289-0.682251,0.3564453-1.0874023c0.1242065-0.4319458,0.2015991-0.8638306,0.2904663-1.3999023
	l0.0038452-0.0324707c0.0582886-0.3009644,0.1920166-1.0931396,0.1920166-1.9473877
	c0-0.4595947-0.0439453-0.9297485-0.0754395-1.2020874L992.2783813,785.4780273z M768.5943604,807.9494629L668.5408325,762.536499
	v-46.0761108L768.5943604,807.9494629z M499.4142761,615.0166016v229.2003174l-136.6602173,62.0431519v-353.265625
	L499.4142761,615.0166016z M211.4879456,456.587738L56.9701309,386.4554749V256.6101685l442.4441528,200.8146362v129.8448486
	l-144.050354-65.3798828c-3.93396-1.7944946-8.4503174-1.468689-12.0861511,0.8723755
	c-3.6253052,2.3372803-5.7900696,6.3084717-5.7900696,10.6227417v372.8770752l-118.5881195-53.8197632v-384.349762
	C218.8995819,463.1479797,215.990448,458.6321106,211.4879456,456.587738z M424.7274475,265.1870728l-43.898407-19.9253693
	v-89.7098083L424.7274475,265.1870728z M450.8127136,302.0369568l0.1342468-0.028656
	c0.5871582-0.1333008,1.6755371-0.4959412,2.175293-0.7080688c0.6124878-0.2622986,1.7438354-0.9163513,1.7548218-0.9225464
	l0.2541809-0.1591187c0.4653625-0.3076782,1.318634-0.9846802,1.744812-1.3879089
	c3.7524109-3.5837402,4.9310608-9.0136108,3.0023193-13.8333435l-75.466095-188.4776611l120.8236084-54.8369484
	l134.4524536,335.7935791L512.050354,435.4072571L74.9051208,236.9982147l113.2863007-51.4165955l254.7533722,115.6269073
	c0.6789246,0.3062439,1.3850403,0.5470276,2.2216187,0.7567749l0.1256714,0.0300903
	c0.1533508,0.0348816,0.3836365,0.0869751,1.3970032,0.222168c0.4744263,0.0702209,1.157135,0.1366577,1.9082031,0.0993652
	C449.288147,302.2935181,449.9770813,302.2060852,450.8127136,302.0369568z M785.5016479,321.6259766
	c0.0028687-0.0057068,0.0057373-0.0114441,0.008606-0.0171814l0.0009766-0.000946L785.5016479,321.6259766z
	 M801.2852783,304.1315002l-147.9088135-67.1332855l147.9088135-67.1337891l147.9078369,67.1337891L801.2852783,304.1315002z
	 M668.5408325,563.5484009V383.9906616c0-0.0750122-0.0114746-0.4060974-0.0363159-0.7362366l-0.010498-0.1433411
	l-0.0009766-0.0214844c-0.0372314-0.7137756-0.142334-1.3401489-0.4223022-2.4614563
	c-0.0344238-0.1314087-0.2178955-0.8174744-0.4328613-1.3348999L622.517334,266.6137085l6.2883911-13.0134888
	l155.4699707,70.5632019L668.5408325,563.5484009z M524.6864014,457.4248047l118.5823364-53.8245544v215.1094666
	c0,1.0272217,0.1395264,1.8948364,0.3478394,2.8809814l0.0716553,0.2990723
	c0.0018921,0.0067139,0.1596069,0.5905151,0.3267822,1.0701904c0.0974731,0.2819214,0.2245483,0.5905151,0.4367065,1.0615845
	l0.0410767,0.0898438c0.2809448,0.5962524,0.5752563,1.0750122,1.052063,1.8031006l0.1051025,0.1557617
	c0.2360229,0.3353882,0.465332,0.5962524,1.0921631,1.3004761l0.559021,0.5838623
	c0.1194458,0.1098633,0.7806396,0.663147,0.8561401,0.7214355c0.5847778,0.4624634,0.9106445,0.6564331,1.0176392,0.7194824
	c0.5332031,0.3182373,1.5250244,0.8294067,2.0630493,1.0530396c0.4910889,0.1958618,1.015686,0.3659668,1.6807861,0.539856
	c0.2923584,0.0716553,0.5905151,0.1299438,0.8934326,0.1748657l0.0238647,0.0028687
	c0.0410767,0.0057373,0.0831299,0.0114746,0.1251831,0.0172119l0.2780762,0.0410767
	c0.1968384,0.0248413,0.3908081,0.0429688,0.5541992,0.0563965c0.4118042,0.0458374,0.7816162,0.0525513,1.0960083,0.0448608
	l0.1605225,0.0019531c0.1843872,0,0.7453003,0,2.4480591-0.2704468l0.6727295-0.1480713
	c0.3965454-0.1118164,1.3845825-0.4577026,1.7314453-0.5991211l0.2025757-0.0879517
	c0.473938-0.2149658,1.4571533-0.7567749,1.980835-1.1170044c0.7108765-0.4911499,1.3167114-1.0109863,2.0285645-1.753418
	c0.4605713-0.4949951,0.8944092-1.0233765,1.5355835-2.0219116c0.0391846-0.0621338,0.3927002-0.6220703,0.6296997-1.1189575
	L810.664856,327.622467l142.628479-64.7348938L785.0707397,612.7137451
	c-2.4261475,5.0480957-1.2871094,10.9829712,2.8274536,14.7611694l169.2870483,155.9821777l-118.9053345,53.9669189
	L664.4320068,678.4682007c-3.7208252-3.4046021-9.0680542-4.2770386-13.6297607-2.2330933
	c-4.5770264,2.019043-7.5335083,6.5511475-7.5335083,11.5543823v238.1460571l-118.5823364,53.8255005V457.4248047z
	 M619.0181274,231.3982697L619.0181274,231.3982697L619.0181274,231.3982697L619.0181274,231.3982697z"/>
</svg>
